<svg width="76" height="66" viewBox="0 0 76 66" fill="none" xmlns="http://www.w3.org/2000/svg">
<path d="M17.3044 55.4348H53.1739" stroke="white" stroke-width="2" stroke-linecap="round" stroke-linejoin="round"/>
<path d="M34.3333 40.4766L49.8554 31.1317" stroke="white" stroke-width="2" stroke-linecap="round" stroke-linejoin="round"/>
<path d="M9.69568 37.8877L15.7109 43.9029" stroke="white" stroke-width="2" stroke-linecap="round" stroke-linejoin="round"/>
<path d="M1 35.7139L7.01521 41.7291" stroke="white" stroke-width="2" stroke-linecap="round" stroke-linejoin="round"/>
<path d="M15.7683 35.4434L25.2258 44.5155C26.4869 45.7266 28.0958 46.4883 29.8133 46.6874C31.5309 46.8865 33.2653 46.5124 34.7586 45.6206L72.7392 23.0045L68.0731 17.1449C66.8594 15.6262 65.1554 14.6023 63.2691 14.2582C61.3828 13.9141 59.4386 14.2726 57.7878 15.2688L46.6495 21.9765L31.5977 16.8365L27.4585 18.6612C27.1488 18.7971 26.8775 19.0108 26.6697 19.2824C26.4618 19.554 26.324 19.8749 26.269 20.2154C26.214 20.556 26.2436 20.9052 26.355 21.2309C26.4665 21.5567 26.6561 21.8484 26.9066 22.0793L34.6081 29.1725L27.5839 33.2845L20.5598 30.2005L16.3453 32.0509C16.0387 32.1859 15.7697 32.397 15.5628 32.6652C15.3559 32.9335 15.2175 33.2503 15.1603 33.5871C15.103 33.9239 15.1286 34.27 15.2347 34.5941C15.3409 34.9183 15.5243 35.2101 15.7683 35.4434V35.4434Z" stroke="white" stroke-width="2" stroke-linecap="round" stroke-linejoin="round"/>
<path d="M68.9348 18.4782C62.9048 23.2143 56.9524 23.8095 52.6305 18.4782L56.0264 16.2708C60.2465 13.5278 65.866 14.4887 68.9348 18.4782Z" fill="#00D1FF" stroke="white" stroke-width="2"/>
</svg>
